<svg width="24" height="24" viewBox="0 0 24 24" fill="none" xmlns="http://www.w3.org/2000/svg">
<path fill-rule="evenodd" clip-rule="evenodd" d="M11.5579 1.39408C11.8212 1.20197 12.1785 1.20197 12.4419 1.39408L14.8704 3.16555L17.8763 3.15983C18.2023 3.15921 18.4913 3.36922 18.5915 3.67943L19.5149 6.54004L21.9501 8.30225C22.2142 8.49335 22.3246 8.83314 22.2233 9.14297L21.289 12L22.2233 14.857C22.3246 15.1669 22.2142 15.5067 21.9501 15.6978L19.5149 17.46L18.5915 20.3206C18.4913 20.6308 18.2023 20.8408 17.8763 20.8401L14.8704 20.8345L12.4419 22.6059C12.1785 22.798 11.8212 22.798 11.5579 22.6059L9.12938 20.8345L6.12344 20.8401C5.79748 20.8408 5.50843 20.6308 5.40829 20.3206L4.48484 17.46L2.04963 15.6978C1.78554 15.5067 1.67514 15.1669 1.77646 14.857L2.71079 12L1.77646 9.14297C1.67514 8.83315 1.78554 8.49335 2.04963 8.30225L4.48484 6.54004L5.40829 3.67943C5.50843 3.36922 5.79748 3.15921 6.12345 3.15983L9.12938 3.16555L11.5579 1.39408ZM11.9999 2.92834L9.81522 4.52194C9.68647 4.61586 9.53116 4.66632 9.3718 4.66602L6.66769 4.66087L5.83696 7.23425C5.788 7.38591 5.69201 7.51803 5.56291 7.61145L3.37221 9.19672L4.21272 11.7669C4.26226 11.9183 4.26226 12.0817 4.21272 12.2331L3.37221 14.8033L5.56291 16.3885C5.69201 16.482 5.788 16.6141 5.83696 16.7657L6.66769 19.3391L9.37181 19.334C9.53116 19.3337 9.68647 19.3842 9.81522 19.4781L11.9999 21.0717L14.1845 19.4781C14.3133 19.3842 14.4686 19.3337 14.6279 19.334L17.3321 19.3391L18.1628 16.7657C18.2117 16.6141 18.3077 16.482 18.4368 16.3885L20.6275 14.8033L19.787 12.2331C19.7375 12.0817 19.7375 11.9183 19.787 11.7669L20.6275 9.19672L18.4368 7.61145C18.3077 7.51803 18.2117 7.38591 18.1628 7.23425L17.3321 4.66087L14.628 4.66602C14.4686 4.66632 14.3133 4.61586 14.1845 4.52194L11.9999 2.92834Z" fill="#FF5656"/>
<path fill-rule="evenodd" clip-rule="evenodd" d="M16.5303 8.96967C16.8232 9.26256 16.8232 9.73744 16.5303 10.0303L11.5303 15.0303C11.2374 15.3232 10.7626 15.3232 10.4697 15.0303L7.96967 12.5303C7.67678 12.2374 7.67678 11.7626 7.96967 11.4697C8.26256 11.1768 8.73744 11.1768 9.03033 11.4697L11 13.4393L15.4697 8.96967C15.7626 8.67678 16.2374 8.67678 16.5303 8.96967Z" fill="#FF5656"/>
</svg>
