<svg width="108" height="32" viewBox="0 0 108 32" fill="none" xmlns="http://www.w3.org/2000/svg">
<path d="M104 0H4C1.79086 0 0 1.79086 0 4V28C0 30.2091 1.79086 32 4 32H104C106.209 32 108 30.2091 108 28V4C108 1.79086 106.209 0 104 0Z" fill="black"/>
<path d="M104 0.64C104.891 0.64 105.746 0.993999 106.376 1.62412C107.006 2.25424 107.36 3.10887 107.36 4V28C107.36 28.8911 107.006 29.7458 106.376 30.3759C105.746 31.006 104.891 31.36 104 31.36H4C3.10887 31.36 2.25424 31.006 1.62412 30.3759C0.993999 29.7458 0.64 28.8911 0.64 28V4C0.64 3.10887 0.993999 2.25424 1.62412 1.62412C2.25424 0.993999 3.10887 0.64 4 0.64H104ZM104 0H4C2.93913 0 1.92172 0.421427 1.17157 1.17157C0.421427 1.92172 0 2.93913 0 4V28C0 29.0609 0.421427 30.0783 1.17157 30.8284C1.92172 31.5786 2.93913 32 4 32H104C105.061 32 106.078 31.5786 106.828 30.8284C107.579 30.0783 108 29.0609 108 28V4C108 2.93913 107.579 1.92172 106.828 1.17157C106.078 0.421427 105.061 0 104 0Z" fill="#A6A6A6"/>
<path d="M25.6904 15.4504C25.6683 12.9937 27.702 11.7985 27.795 11.7428C26.6432 10.0636 24.8581 9.83418 24.2307 9.81589C22.7314 9.65811 21.277 10.7131 20.5133 10.7131C19.7342 10.7131 18.5581 9.83114 17.2905 9.85705C15.6593 9.88221 14.1333 10.8266 13.2963 12.2932C11.5691 15.2835 12.8573 19.6778 14.5121 22.0949C15.3399 23.2787 16.3072 24.6004 17.5733 24.5539C18.8119 24.5028 19.2746 23.7642 20.7694 23.7642C22.2504 23.7642 22.6849 24.5539 23.9761 24.5242C25.3055 24.5028 26.1424 23.3351 26.9413 22.1406C27.8979 20.7838 28.2821 19.4476 28.2973 19.379C28.2661 19.3683 25.7156 18.395 25.6904 15.4504Z" fill="white"/>
<path d="M23.2511 8.22583C23.9173 7.39269 24.3731 6.25924 24.2466 5.10901C23.2824 5.15169 22.0765 5.77597 21.3821 6.59081C20.7677 7.30885 20.2189 8.48575 20.3607 9.59253C21.4438 9.67333 22.556 9.046 23.2511 8.22583Z" fill="white"/>
<path d="M43.6161 24.3838H41.885L40.9368 21.4042H37.6408L36.7376 24.3838H35.0522L38.3177 14.2399H40.3346L43.6161 24.3838ZM40.6509 20.1541L39.7934 17.5053C39.7027 17.2347 39.5327 16.5975 39.2819 15.5944H39.2515C39.1516 16.0258 38.9908 16.663 38.7697 17.5053L37.9274 20.1541H40.6509V20.1541Z" fill="white"/>
<path d="M52.0136 20.6366C52.0136 21.8806 51.6775 22.8639 51.0052 23.5857C50.403 24.2283 49.6552 24.5492 48.7627 24.5492C47.7992 24.5492 47.1071 24.2032 46.6855 23.511H46.655V27.3642H45.0299V19.4772C45.0299 18.6952 45.0094 17.8925 44.9697 17.0693H46.3989L46.4896 18.2287H46.5201C47.0621 17.3551 47.8846 16.9191 48.9883 16.9191C49.8511 16.9191 50.5715 17.2599 51.1477 17.9421C51.7255 18.625 52.0136 19.523 52.0136 20.6366ZM50.358 20.6961C50.358 19.9841 50.198 19.3972 49.8763 18.9353C49.5249 18.4535 49.0531 18.2127 48.4616 18.2127C48.0606 18.2127 47.6963 18.3468 47.3708 18.6113C47.0446 18.8781 46.8311 19.2265 46.7313 19.6579C46.681 19.8591 46.6558 20.0238 46.6558 20.1533V21.3729C46.6558 21.905 46.8189 22.354 47.1452 22.7206C47.4714 23.0872 47.8952 23.2702 48.4166 23.2702C49.0287 23.2702 49.5051 23.0339 49.8458 22.5628C50.1873 22.091 50.358 21.469 50.358 20.6961Z" fill="white"/>
<path d="M60.4267 20.6366C60.4267 21.8806 60.0905 22.8639 59.4175 23.5857C58.8161 24.2283 58.0683 24.5492 57.1757 24.5492C56.2122 24.5492 55.5201 24.2032 55.0994 23.511H55.0689V27.3642H53.4438V19.4772C53.4438 18.6952 53.4232 17.8925 53.3835 17.0693H54.8128L54.9035 18.2287H54.9339C55.4751 17.3551 56.2976 16.9191 57.4021 16.9191C58.2642 16.9191 58.9845 17.2599 59.5623 17.9421C60.1378 18.625 60.4267 19.523 60.4267 20.6366ZM58.7711 20.6961C58.7711 19.9841 58.6103 19.3972 58.2886 18.9353C57.9372 18.4535 57.4669 18.2127 56.8746 18.2127C56.4729 18.2127 56.1093 18.3468 55.7831 18.6113C55.4569 18.8781 55.2442 19.2265 55.1443 19.6579C55.0948 19.8591 55.0689 20.0238 55.0689 20.1533V21.3729C55.0689 21.905 55.232 22.354 55.5567 22.7206C55.8829 23.0865 56.3068 23.2702 56.8297 23.2702C57.4417 23.2702 57.9181 23.0339 58.2589 22.5628C58.6004 22.091 58.7711 21.469 58.7711 20.6961Z" fill="white"/>
<path d="M69.8327 21.5391C69.8327 22.402 69.5331 23.104 68.9317 23.646C68.2708 24.2383 67.3508 24.534 66.1685 24.534C65.077 24.534 64.2019 24.3236 63.5396 23.9021L63.9161 22.5476C64.6296 22.979 65.4124 23.1955 66.2653 23.1955C66.8774 23.1955 67.3538 23.0568 67.6961 22.7808C68.0368 22.5049 68.2068 22.1345 68.2068 21.6725C68.2068 21.2609 68.0665 20.9141 67.7853 20.6328C67.5055 20.3516 67.0383 20.0901 66.3858 19.8485C64.6097 19.1861 63.7225 18.2158 63.7225 16.9398C63.7225 16.1059 64.0335 15.4221 64.6562 14.8901C65.2767 14.3573 66.1045 14.0912 67.1396 14.0912C68.0627 14.0912 68.8295 14.2521 69.4416 14.573L69.0353 15.8978C68.4637 15.5868 67.8173 15.4313 67.0939 15.4313C66.5222 15.4313 66.0755 15.5723 65.7554 15.8528C65.4848 16.1036 65.3491 16.4092 65.3491 16.7713C65.3491 17.1722 65.5039 17.5038 65.8149 17.7645C66.0855 18.0054 66.5771 18.2661 67.2906 18.5473C68.1633 18.8987 68.8044 19.3096 69.2168 19.7806C69.6276 20.2502 69.8327 20.8379 69.8327 21.5391Z" fill="white"/>
<path d="M75.2058 18.2889H73.4145V21.8402C73.4145 22.7435 73.7301 23.1947 74.3627 23.1947C74.6532 23.1947 74.894 23.1696 75.0846 23.1193L75.1296 24.3534C74.8094 24.473 74.3879 24.5332 73.8658 24.5332C73.2239 24.5332 72.7224 24.3373 72.3603 23.9463C71.9998 23.5545 71.8184 22.8975 71.8184 21.9744V18.2874H70.7512V17.0678H71.8184V15.7285L73.4145 15.2468V17.0678H75.2058V18.2889Z" fill="white"/>
<path d="M83.2879 20.6664C83.2879 21.7907 82.9662 22.7138 82.3244 23.4357C81.6513 24.1789 80.758 24.5493 79.6443 24.5493C78.5711 24.5493 77.7166 24.1933 77.0794 23.4814C76.4422 22.7695 76.1235 21.8708 76.1235 20.7876C76.1235 19.6542 76.4513 18.7258 77.1091 18.0039C77.7654 17.2813 78.6511 16.92 79.7648 16.92C80.838 16.92 81.7016 17.276 82.3534 17.9887C82.9769 18.68 83.2879 19.5726 83.2879 20.6664ZM81.6018 20.719C81.6018 20.0444 81.4577 19.4659 81.1658 18.9834C80.8251 18.3995 80.338 18.1083 79.7068 18.1083C79.0536 18.1083 78.5574 18.4003 78.2167 18.9834C77.9247 19.4667 77.7807 20.0544 77.7807 20.7495C77.7807 21.4241 77.9247 22.0026 78.2167 22.4844C78.5681 23.0683 79.0589 23.3594 79.6924 23.3594C80.3128 23.3594 80.7999 23.0622 81.1513 22.4691C81.4509 21.9775 81.6018 21.3929 81.6018 20.719Z" fill="white"/>
<path d="M88.5701 18.4985C88.4093 18.4688 88.2378 18.4535 88.0579 18.4535C87.4862 18.4535 87.0441 18.6693 86.7331 19.1015C86.4625 19.4826 86.3268 19.9643 86.3268 20.5459V24.3838H84.7025L84.7177 19.3728C84.7177 18.5298 84.6971 17.7622 84.6567 17.0701H86.0722L86.1317 18.4696H86.1767C86.3482 17.9886 86.6188 17.6014 86.9892 17.3109C87.3513 17.0495 87.7423 16.9191 88.1638 16.9191C88.314 16.9191 88.4497 16.9298 88.5701 16.9489V18.4985Z" fill="white"/>
<path d="M95.8381 20.3805C95.8381 20.6717 95.819 20.9172 95.7786 21.1176H90.9033C90.9224 21.8402 91.1579 22.3929 91.6107 22.774C92.0215 23.1147 92.5528 23.2855 93.2053 23.2855C93.9271 23.2855 94.5857 23.1704 95.178 22.9394L95.4326 24.0675C94.7404 24.3694 93.9233 24.5195 92.9804 24.5195C91.8462 24.5195 90.9559 24.1857 90.308 23.5187C89.6616 22.8517 89.3376 21.9561 89.3376 20.8326C89.3376 19.7296 89.6387 18.8111 90.2417 18.0786C90.8728 17.2965 91.7258 16.9055 92.799 16.9055C93.8532 16.9055 94.6513 17.2965 95.1932 18.0786C95.6224 18.6998 95.8381 19.4681 95.8381 20.3805ZM94.2884 19.959C94.2991 19.4773 94.1931 19.0611 93.9729 18.7097C93.6916 18.2577 93.2594 18.0321 92.6778 18.0321C92.1465 18.0321 91.7143 18.2524 91.3843 18.6945C91.1137 19.0459 90.9528 19.4674 90.9033 19.9583H94.2884V19.959Z" fill="white"/>
<path d="M40.1136 7.99947C40.1136 8.89663 39.8446 9.57198 39.3072 10.0255C38.8094 10.444 38.1021 10.6536 37.1859 10.6536C36.7316 10.6536 36.3428 10.6338 36.0173 10.5941V5.69215C36.4419 5.62355 36.8993 5.58849 37.3932 5.58849C38.266 5.58849 38.9238 5.77828 39.3674 6.15788C39.8644 6.58703 40.1136 7.20063 40.1136 7.99947ZM39.2714 8.02157C39.2714 7.43998 39.1174 6.99407 38.8094 6.68307C38.5015 6.37284 38.0518 6.21734 37.4595 6.21734C37.208 6.21734 36.9938 6.23411 36.8162 6.26917V9.99579C36.9145 10.011 37.0944 10.0179 37.3558 10.0179C37.9672 10.0179 38.439 9.84791 38.7713 9.50795C39.1037 9.16799 39.2714 8.67253 39.2714 8.02157Z" fill="white"/>
<path d="M44.5798 8.78304C44.5798 9.33566 44.422 9.78844 44.1065 10.1436C43.7757 10.5088 43.3374 10.6909 42.7901 10.6909C42.2626 10.6909 41.8426 10.5164 41.5293 10.1657C41.2168 9.81588 41.0605 9.37454 41.0605 8.84249C41.0605 8.28605 41.2214 7.82947 41.5446 7.47502C41.8678 7.12058 42.3022 6.94298 42.8495 6.94298C43.377 6.94298 43.8008 7.11753 44.1217 7.4674C44.4266 7.80736 44.5798 8.24642 44.5798 8.78304ZM43.7513 8.80895C43.7513 8.47738 43.6796 8.19306 43.5371 7.956C43.3694 7.6694 43.1308 7.52609 42.8206 7.52609C42.4997 7.52609 42.2557 7.6694 42.0881 7.956C41.9448 8.19306 41.8739 8.48195 41.8739 8.82344C41.8739 9.15501 41.9455 9.43933 42.0881 9.67639C42.2611 9.96299 42.502 10.1063 42.8129 10.1063C43.1178 10.1063 43.3572 9.96071 43.5295 9.66877C43.6773 9.42713 43.7513 9.14053 43.7513 8.80895Z" fill="white"/>
<path d="M50.5679 7.01611L49.4436 10.6093H48.7119L48.2462 9.04902C48.128 8.65951 48.032 8.27229 47.9573 7.88812H47.9428C47.8734 8.28296 47.7774 8.66942 47.6539 9.04902L47.1592 10.6093H46.419L45.3618 7.01611H46.1828L46.589 8.7243C46.6874 9.12829 46.7682 9.51323 46.8329 9.87758H46.8474C46.9069 9.57726 47.0052 9.19461 47.1439 8.73193L47.6539 7.01688H48.3048L48.7934 8.69534C48.9116 9.10466 49.0076 9.49875 49.0816 9.87834H49.1037C49.1578 9.50865 49.2394 9.11457 49.3476 8.69534L49.7836 7.01688H50.5679V7.01611Z" fill="white"/>
<path d="M54.7092 10.6093H53.9103V8.55128C53.9103 7.91709 53.6695 7.6 53.1862 7.6C52.9491 7.6 52.7578 7.6869 52.6092 7.86145C52.4621 8.03601 52.3874 8.24181 52.3874 8.47734V10.6086H51.5885V8.04287C51.5885 7.7273 51.5786 7.38505 51.5596 7.0146H52.2616L52.2989 7.57637H52.3211C52.414 7.40182 52.5528 7.25775 52.735 7.14265C52.9514 7.0085 53.1938 6.94066 53.4591 6.94066C53.7945 6.94066 54.0735 7.0489 54.2953 7.26614C54.5712 7.53216 54.7092 7.92929 54.7092 8.45676V10.6093V10.6093Z" fill="white"/>
<path d="M56.9118 10.6094H56.1138V5.36742H56.9118V10.6094Z" fill="white"/>
<path d="M61.6152 8.78304C61.6152 9.33566 61.4574 9.78844 61.1419 10.1436C60.8111 10.5088 60.372 10.6909 59.8255 10.6909C59.2972 10.6909 58.8772 10.5164 58.5647 10.1657C58.2522 9.81588 58.0959 9.37454 58.0959 8.84249C58.0959 8.28605 58.2568 7.82947 58.58 7.47502C58.9032 7.12058 59.3376 6.94298 59.8842 6.94298C60.4124 6.94298 60.8355 7.11753 61.1571 7.4674C61.462 7.80736 61.6152 8.24642 61.6152 8.78304ZM60.7859 8.80895C60.7859 8.47738 60.7143 8.19306 60.5717 7.956C60.4048 7.6694 60.1654 7.52609 59.856 7.52609C59.5343 7.52609 59.2904 7.6694 59.1235 7.956C58.9802 8.19306 58.9093 8.48195 58.9093 8.82344C58.9093 9.15501 58.9809 9.43933 59.1235 9.67639C59.2965 9.96299 59.5374 10.1063 59.8484 10.1063C60.1532 10.1063 60.3918 9.96071 60.5641 9.66877C60.7127 9.42713 60.7859 9.14053 60.7859 8.80895Z" fill="white"/>
<path d="M65.4811 10.6094H64.7639L64.7044 10.1955H64.6823C64.4369 10.5255 64.087 10.6909 63.6327 10.6909C63.2935 10.6909 63.0191 10.5819 62.8125 10.3655C62.625 10.1688 62.5312 9.92412 62.5312 9.6337C62.5312 9.19465 62.7142 8.86002 63.0824 8.6283C63.4498 8.39658 63.9666 8.283 64.632 8.28834V8.22126C64.632 7.74791 64.3835 7.51161 63.8858 7.51161C63.5313 7.51161 63.2188 7.6008 62.949 7.77764L62.7866 7.25321C63.1205 7.04664 63.5328 6.94298 64.0192 6.94298C64.9582 6.94298 65.4293 7.43844 65.4293 8.42936V9.75261C65.4293 10.1116 65.4468 10.3975 65.4811 10.6094ZM64.6518 9.37454V8.82039C63.7707 8.80514 63.3301 9.04677 63.3301 9.54452C63.3301 9.73203 63.3804 9.87228 63.4833 9.96604C63.5862 10.0598 63.7173 10.1063 63.8736 10.1063C64.0489 10.1063 64.2128 10.0507 64.3622 9.94013C64.5123 9.82884 64.6046 9.68782 64.6389 9.51479C64.6472 9.47592 64.6518 9.42866 64.6518 9.37454Z" fill="white"/>
<path d="M70.0202 10.6094H69.3113L69.274 10.0324H69.2518C69.0255 10.4714 68.6398 10.6909 68.0978 10.6909C67.6649 10.6909 67.3043 10.521 67.0185 10.181C66.7326 9.84103 66.5901 9.39969 66.5901 8.85774C66.5901 8.27614 66.7448 7.80508 67.0558 7.4453C67.3569 7.10991 67.7258 6.94221 68.1649 6.94221C68.6474 6.94221 68.9851 7.10457 69.1771 7.43005H69.1924V5.36742H69.992V9.64132C69.992 9.99119 70.0011 10.3136 70.0202 10.6094ZM69.1924 9.09403V8.49491C69.1924 8.39124 69.1848 8.3074 69.1703 8.24337C69.1253 8.05128 69.0285 7.88969 68.8814 7.75934C68.7328 7.629 68.5536 7.56344 68.3471 7.56344C68.049 7.56344 67.8158 7.68159 67.6443 7.91865C67.4743 8.15571 67.3882 8.45832 67.3882 8.82801C67.3882 9.18321 67.4697 9.47134 67.6336 9.69316C67.8066 9.92945 68.0399 10.0476 68.3318 10.0476C68.594 10.0476 68.8036 9.94927 68.963 9.75185C69.1169 9.56967 69.1924 9.35015 69.1924 9.09403Z" fill="white"/>
<path d="M76.8523 8.78304C76.8523 9.33566 76.6945 9.78844 76.3789 10.1436C76.0481 10.5088 75.6106 10.6909 75.0625 10.6909C74.5358 10.6909 74.1158 10.5164 73.8018 10.1657C73.4893 9.81588 73.333 9.37454 73.333 8.84249C73.333 8.28605 73.4938 7.82947 73.817 7.47502C74.1402 7.12058 74.5747 6.94298 75.1228 6.94298C75.6495 6.94298 76.074 7.11753 76.3942 7.4674C76.6991 7.80736 76.8523 8.24642 76.8523 8.78304ZM76.0245 8.80895C76.0245 8.47738 75.9528 8.19306 75.8103 7.956C75.6418 7.6694 75.404 7.52609 75.093 7.52609C74.7729 7.52609 74.529 7.6694 74.3605 7.956C74.2172 8.19306 74.1463 8.48195 74.1463 8.82344C74.1463 9.15501 74.218 9.43933 74.3605 9.67639C74.5335 9.96299 74.7744 10.1063 75.0854 10.1063C75.3903 10.1063 75.6304 9.96071 75.8027 9.66877C75.9498 9.42713 76.0245 9.14053 76.0245 8.80895Z" fill="white"/>
<path d="M81.1474 10.6093H80.3493V8.55128C80.3493 7.91709 80.1084 7.6 79.6244 7.6C79.3873 7.6 79.196 7.6869 79.0481 7.86145C78.9003 8.03601 78.8263 8.24181 78.8263 8.47734V10.6086H78.0267V8.04287C78.0267 7.7273 78.0176 7.38505 77.9985 7.0146H78.6998L78.7372 7.57637H78.7593C78.853 7.40182 78.9917 7.25775 79.1732 7.14265C79.3904 7.0085 79.632 6.94066 79.8981 6.94066C80.2327 6.94066 80.5117 7.0489 80.7335 7.26614C81.0102 7.53216 81.1474 7.92929 81.1474 8.45676V10.6093V10.6093Z" fill="white"/>
<path d="M86.5236 7.61451H85.644V9.36006C85.644 9.80368 85.8002 10.0255 86.1097 10.0255C86.253 10.0255 86.3719 10.0133 86.4657 9.98815L86.4863 10.5941C86.3285 10.6536 86.1211 10.6833 85.8658 10.6833C85.5502 10.6833 85.3048 10.5873 85.1272 10.3952C84.9488 10.2031 84.8604 9.87991 84.8604 9.42637V7.61451H84.3352V7.01615H84.8604V6.35757L85.6432 6.12128V7.01539H86.5228V7.61451H86.5236Z" fill="white"/>
<path d="M90.7527 10.6094H89.9531V8.56656C89.9531 7.92246 89.7122 7.60003 89.2297 7.60003C88.8593 7.60003 88.6062 7.78678 88.4675 8.16028C88.4439 8.23879 88.4301 8.33484 88.4301 8.44765V10.6086H87.6321V5.36742H88.4301V7.53295H88.4454C88.6969 7.13887 89.0575 6.94221 89.5247 6.94221C89.8555 6.94221 90.1292 7.05045 90.3464 7.26769C90.617 7.53829 90.7527 7.94076 90.7527 8.4728V10.6094V10.6094Z" fill="white"/>
<path d="M95.115 8.64276C95.115 8.78606 95.1043 8.9065 95.0852 9.00483H92.6895C92.7002 9.36004 92.8145 9.63063 93.0363 9.81815C93.2391 9.98584 93.5005 10.0697 93.8207 10.0697C94.1751 10.0697 94.4983 10.0133 94.7895 9.8997L94.9145 10.4546C94.5738 10.6025 94.1728 10.6764 93.7086 10.6764C93.1522 10.6764 92.7139 10.5126 92.3968 10.1848C92.0782 9.85702 91.9204 9.4172 91.9204 8.86534C91.9204 8.32338 92.0675 7.87213 92.364 7.51235C92.6735 7.12818 93.092 6.9361 93.6202 6.9361C94.137 6.9361 94.5296 7.12818 94.7948 7.51235C95.009 7.81725 95.115 8.19456 95.115 8.64276ZM94.3527 8.43619C94.3588 8.19914 94.3062 7.99485 94.198 7.82259C94.0593 7.60077 93.8481 7.48949 93.5623 7.48949C93.3016 7.48949 93.0889 7.59772 92.9266 7.81496C92.7939 7.98799 92.7154 8.19456 92.6895 8.43619H94.3527Z" fill="white"/>
</svg>
