<svg width="108" height="32" viewBox="0 0 108 32" fill="none" xmlns="http://www.w3.org/2000/svg">
<path d="M104 0H4C1.79086 0 0 1.79086 0 4V28C0 30.2091 1.79086 32 4 32H104C106.209 32 108 30.2091 108 28V4C108 1.79086 106.209 0 104 0Z" fill="black"/>
<path d="M104 0.64C104.891 0.64 105.746 0.993999 106.376 1.62412C107.006 2.25424 107.36 3.10887 107.36 4V28C107.36 28.8911 107.006 29.7458 106.376 30.3759C105.746 31.006 104.891 31.36 104 31.36H4C3.10887 31.36 2.25424 31.006 1.62412 30.3759C0.993999 29.7458 0.64 28.8911 0.64 28V4C0.64 3.10887 0.993999 2.25424 1.62412 1.62412C2.25424 0.993999 3.10887 0.64 4 0.64H104ZM104 0H4C2.93913 0 1.92172 0.421427 1.17157 1.17157C0.421427 1.92172 0 2.93913 0 4V28C0 29.0609 0.421427 30.0783 1.17157 30.8284C1.92172 31.5786 2.93913 32 4 32H104C105.061 32 106.078 31.5786 106.828 30.8284C107.579 30.0783 108 29.0609 108 28V4C108 2.93913 107.579 1.92172 106.828 1.17157C106.078 0.421427 105.061 0 104 0Z" fill="#A6A6A6"/>
<path d="M54.5119 17.4C53.8401 17.4032 53.1843 17.6053 52.6273 17.9808C52.0703 18.3563 51.637 18.8884 51.3821 19.5099C51.1272 20.1315 51.0622 20.8146 51.1952 21.4731C51.3282 22.1315 51.6532 22.7359 52.1294 23.2098C52.6055 23.6837 53.2113 24.0059 53.8704 24.1358C54.5295 24.2657 55.2123 24.1974 55.8327 23.9396C56.453 23.6818 56.9831 23.246 57.356 22.6873C57.7289 22.1285 57.9279 21.4718 57.9279 20.8C57.9344 20.3504 57.8504 19.904 57.6808 19.4875C57.5113 19.071 57.2596 18.6929 56.9409 18.3756C56.6222 18.0584 56.2429 17.8085 55.8256 17.6409C55.4083 17.4733 54.9615 17.3914 54.5119 17.4V17.4ZM54.5119 22.864C54.0987 22.8929 53.6865 22.7968 53.3287 22.5883C52.9708 22.3798 52.684 22.0685 52.5055 21.6948C52.327 21.3211 52.265 20.9023 52.3276 20.4929C52.3902 20.0835 52.5746 19.7025 52.8567 19.3992C53.1387 19.096 53.5055 18.8846 53.9093 18.7926C54.3131 18.7006 54.7352 18.7322 55.1208 18.8833C55.5064 19.0344 55.8377 19.2979 56.0715 19.6398C56.3053 19.9816 56.4309 20.3859 56.4319 20.8C56.4448 21.0624 56.405 21.3248 56.3149 21.5715C56.2248 21.8183 56.0861 22.0446 55.9072 22.237C55.7283 22.4293 55.5126 22.5839 55.273 22.6916C55.0333 22.7993 54.7745 22.8579 54.5119 22.864ZM47.0639 17.4C46.3918 17.4016 45.7352 17.6023 45.1771 17.9769C44.6191 18.3515 44.1845 18.883 43.9284 19.5044C43.6723 20.1258 43.6061 20.8092 43.7382 21.4682C43.8703 22.1272 44.1947 22.7323 44.6706 23.207C45.1464 23.6817 45.7522 24.0047 46.4115 24.1353C47.0708 24.2658 47.754 24.198 48.3748 23.9404C48.9957 23.6829 49.5262 23.2471 49.8994 22.6881C50.2727 22.1292 50.4719 21.4721 50.4719 20.8C50.4784 20.3504 50.3944 19.904 50.2248 19.4875C50.0553 19.071 49.8036 18.6929 49.4849 18.3756C49.1662 18.0584 48.7869 17.8085 48.3696 17.6409C47.9523 17.4733 47.5055 17.3914 47.0559 17.4H47.0639ZM47.0639 22.864C46.6505 22.8945 46.2376 22.7999 45.8788 22.5925C45.52 22.385 45.2319 22.0743 45.0522 21.7009C44.8724 21.3274 44.8092 20.9085 44.8708 20.4987C44.9325 20.0888 45.1161 19.707 45.3977 19.403C45.6794 19.0989 46.0461 18.8867 46.45 18.794C46.854 18.7012 47.2765 18.7322 47.6626 18.883C48.0486 19.0337 48.3804 19.2972 48.6146 19.6391C48.8489 19.981 48.9748 20.3855 48.9759 20.8C48.9888 21.0624 48.949 21.3248 48.8589 21.5715C48.7688 21.8183 48.6301 22.0446 48.4512 22.237C48.2723 22.4293 48.0566 22.5839 47.817 22.6916C47.5773 22.7993 47.3185 22.8579 47.0559 22.864H47.0639ZM38.1919 18.448V19.888H41.6479C41.5937 20.5663 41.3118 21.2062 40.8479 21.704C40.5021 22.0562 40.0865 22.3321 39.6277 22.514C39.1688 22.6958 38.677 22.7797 38.1839 22.76C37.1655 22.76 36.1887 22.3554 35.4686 21.6353C34.7485 20.9152 34.3439 19.9384 34.3439 18.92C34.3439 17.9016 34.7485 16.9249 35.4686 16.2047C36.1887 15.4846 37.1655 15.08 38.1839 15.08C39.1581 15.0641 40.0989 15.4352 40.7999 16.112L41.8159 15.096C41.3427 14.6168 40.7781 14.2375 40.1556 13.9805C39.5331 13.7236 38.8653 13.5942 38.1919 13.6C37.4807 13.5723 36.7712 13.6885 36.106 13.9416C35.4408 14.1947 34.8335 14.5794 34.3205 15.0728C33.8075 15.5662 33.3994 16.1581 33.1207 16.813C32.8419 17.4679 32.6982 18.1723 32.6982 18.884C32.6982 19.5958 32.8419 20.3002 33.1207 20.9551C33.3994 21.6099 33.8075 22.2018 34.3205 22.6952C34.8335 23.1886 35.4408 23.5734 36.106 23.8264C36.7712 24.0795 37.4807 24.1957 38.1919 24.168C38.8766 24.199 39.5601 24.0829 40.1962 23.8276C40.8324 23.5723 41.4065 23.1837 41.8799 22.688C42.718 21.7671 43.1655 20.5566 43.1279 19.312C43.1305 19.0088 43.1037 18.7061 43.0479 18.408L38.1919 18.448ZM74.4399 19.568C74.2312 18.9542 73.8411 18.4182 73.3211 18.0311C72.8011 17.6439 72.1757 17.4239 71.5279 17.4C71.0903 17.3992 70.6572 17.4881 70.2553 17.6612C69.8534 17.8344 69.4913 18.0882 69.1914 18.4068C68.8915 18.7255 68.6601 19.1023 68.5116 19.5139C68.363 19.9255 68.3005 20.3633 68.3279 20.8C68.3182 21.2471 68.3987 21.6916 68.5646 22.107C68.7305 22.5223 68.9784 22.8999 69.2935 23.2173C69.6086 23.5346 69.9845 23.7852 70.3986 23.9541C70.8128 24.1229 71.2567 24.2066 71.7039 24.2C72.2635 24.203 72.8151 24.0672 73.3093 23.8047C73.8036 23.5423 74.225 23.1613 74.5359 22.696L73.3759 21.896C73.2028 22.1846 72.9576 22.4234 72.6646 22.5888C72.3715 22.7543 72.0405 22.8409 71.7039 22.84C71.3574 22.8532 71.0149 22.7619 70.721 22.5778C70.427 22.3938 70.1953 22.1255 70.0559 21.808L74.6079 19.928L74.4399 19.568ZM69.7999 20.704C69.7837 20.4566 69.817 20.2084 69.8979 19.974C69.9788 19.7396 70.1057 19.5236 70.2711 19.3389C70.4365 19.1541 70.637 19.0042 70.8611 18.8979C71.0852 18.7917 71.3282 18.7312 71.5759 18.72C71.8339 18.703 72.0913 18.7622 72.316 18.8902C72.5407 19.0182 72.7229 19.2094 72.8399 19.44L69.7999 20.704ZM66.1039 24H67.5999V14H66.1039V24ZM63.6559 18.16H63.5999C63.3744 17.9079 63.0982 17.7063 62.7894 17.5685C62.4806 17.4306 62.1461 17.3596 61.8079 17.36C60.9336 17.4024 60.1092 17.7795 59.5055 18.4133C58.9017 19.047 58.565 19.8887 58.565 20.764C58.565 21.6393 58.9017 22.481 59.5055 23.1147C60.1092 23.7485 60.9336 24.1256 61.8079 24.168C62.1469 24.1737 62.483 24.105 62.7926 23.9668C63.1022 23.8286 63.3778 23.6242 63.5999 23.368H63.6479V23.856C63.6479 25.16 62.9519 25.856 61.8319 25.856C61.4589 25.8473 61.0969 25.7277 60.792 25.5126C60.4871 25.2975 60.2532 24.9965 60.1199 24.648L58.8159 25.192C59.0613 25.7891 59.4796 26.2992 60.017 26.657C60.5543 27.0148 61.1863 27.2039 61.8319 27.2C63.5839 27.2 65.0319 26.168 65.0319 23.656V17.6H63.6559V18.16ZM61.9439 22.864C61.4278 22.8185 60.9476 22.5814 60.5977 22.1993C60.2478 21.8173 60.0538 21.318 60.0538 20.8C60.0538 20.282 60.2478 19.7827 60.5977 19.4007C60.9476 19.0186 61.4278 18.7815 61.9439 18.736C62.1997 18.7491 62.4504 18.8133 62.681 18.9248C62.9117 19.0363 63.1177 19.1929 63.287 19.3852C63.4562 19.5775 63.5852 19.8018 63.6664 20.0448C63.7477 20.2878 63.7794 20.5446 63.7599 20.8C63.7817 21.0566 63.7513 21.3149 63.6704 21.5593C63.5896 21.8038 63.46 22.0293 63.2895 22.2222C63.119 22.4152 62.9111 22.5715 62.6784 22.6818C62.4458 22.7921 62.1932 22.8541 61.9359 22.864H61.9439ZM81.4479 14H77.8719V24H79.3679V20.208H81.4559C81.8822 20.2386 82.3103 20.1811 82.7135 20.039C83.1166 19.8969 83.4862 19.6732 83.7991 19.382C84.112 19.0908 84.3615 18.7382 84.5322 18.3463C84.7028 17.9543 84.7909 17.5315 84.7909 17.104C84.7909 16.6765 84.7028 16.2537 84.5322 15.8617C84.3615 15.4698 84.112 15.1172 83.7991 14.826C83.4862 14.5348 83.1166 14.3111 82.7135 14.169C82.3103 14.0269 81.8822 13.9694 81.4559 14H81.4479ZM81.4479 18.8H79.3599V15.392H81.4799C81.935 15.392 82.3715 15.5728 82.6933 15.8946C83.0151 16.2164 83.1959 16.6529 83.1959 17.108C83.1959 17.5631 83.0151 17.9996 82.6933 18.3214C82.3715 18.6432 81.935 18.824 81.4799 18.824L81.4479 18.8ZM90.6719 17.36C90.1273 17.3275 89.585 17.4547 89.1117 17.7262C88.6384 17.9976 88.2548 18.4015 88.0079 18.888L89.3359 19.44C89.4668 19.1987 89.6651 19.0006 89.9065 18.87C90.148 18.7393 90.4222 18.6816 90.6959 18.704C90.8858 18.6818 91.0782 18.6977 91.2619 18.7507C91.4456 18.8036 91.617 18.8927 91.7659 19.0126C91.9148 19.1325 92.0384 19.2808 92.1294 19.449C92.2204 19.6171 92.277 19.8017 92.2959 19.992V20.096C91.8154 19.8416 91.2796 19.7097 90.7359 19.712C89.3039 19.712 87.8559 20.512 87.8559 21.96C87.87 22.2688 87.9459 22.5715 88.0791 22.8505C88.2122 23.1294 88.4 23.3787 88.6312 23.5838C88.8624 23.789 89.1324 23.9456 89.4252 24.0446C89.718 24.1435 90.0277 24.1828 90.3359 24.16C90.7126 24.1871 91.0897 24.1122 91.4275 23.9433C91.7654 23.7744 92.0515 23.5176 92.2559 23.2H92.3039V24H93.7439V20.152C93.7439 18.4 92.4159 17.384 90.7119 17.384L90.6719 17.36ZM90.4879 22.84C89.9999 22.84 89.3199 22.592 89.3199 21.992C89.3199 21.192 90.1679 20.928 90.9199 20.928C91.3951 20.9163 91.8648 21.0323 92.2799 21.264C92.2299 21.6971 92.025 22.0976 91.7031 22.3916C91.3811 22.6856 90.9638 22.8534 90.5279 22.864L90.4879 22.84ZM98.9919 17.6L97.2799 21.936H97.2319L95.4559 17.6H93.8559L96.5199 23.664L94.9999 27.032H96.5599L100.656 17.6H98.9919ZM85.5439 24H87.0399V14H85.5439V24Z" fill="white"/>
<path d="M37.8861 8.24202C37.8997 8.53545 37.8535 8.82859 37.7504 9.10363C37.6472 9.37867 37.4893 9.62988 37.2861 9.84202C37.0592 10.0777 36.7852 10.2629 36.482 10.3856C36.1787 10.5083 35.853 10.5657 35.5261 10.554C35.0301 10.5501 34.5462 10.4 34.1352 10.1223C33.7242 9.84464 33.4042 9.45185 33.2154 8.99315C33.0267 8.53445 32.9775 8.03024 33.074 7.54369C33.1705 7.05715 33.4085 6.60991 33.7581 6.25802C33.9878 6.02345 34.2633 5.83852 34.5674 5.71467C34.8715 5.59083 35.1978 5.53071 35.5261 5.53802C35.8643 5.53689 36.1991 5.60496 36.5101 5.73802C36.7996 5.85478 37.0573 6.03847 37.2621 6.27402L36.8381 6.69802C36.6784 6.5081 36.4768 6.35791 36.249 6.25933C36.0213 6.16075 35.7738 6.11648 35.5261 6.13002C35.2762 6.1288 35.0286 6.17804 34.7982 6.27481C34.5679 6.37158 34.3594 6.51388 34.1853 6.69317C34.0112 6.87247 33.8752 7.08506 33.7853 7.31822C33.6954 7.55137 33.6535 7.80028 33.6621 8.05002C33.6568 8.42293 33.7622 8.78903 33.9647 9.10216C34.1673 9.41528 34.4581 9.66138 34.8004 9.80943C35.1427 9.95747 35.5212 10.0008 35.8881 9.93401C36.255 9.8672 36.5939 9.69322 36.8621 9.43402C37.1082 9.16725 37.2502 8.82082 37.2621 8.45802H35.5261V7.88202H37.8541C37.8754 8.00083 37.8861 8.12131 37.8861 8.24202ZM41.5501 6.24202H39.3901V7.76202H41.3581V8.33802H39.3901V9.85802H41.5501V10.45H38.7501V5.65002H41.5501V6.24202ZM44.1741 10.45H43.5581V6.24202H42.2141V5.65002H45.5501V6.24202H44.1741V10.45ZM47.9021 10.45V5.65002H48.5181V10.45H47.9021ZM51.2541 10.45H50.6381V6.24202H49.2941V5.65002H52.5901V6.24202H51.2541V10.45ZM58.8381 9.82602C58.3704 10.2911 57.7376 10.5522 57.0781 10.5522C56.4185 10.5522 55.7858 10.2911 55.3181 9.82602C54.8635 9.34484 54.6102 8.70797 54.6102 8.04602C54.6102 7.38407 54.8635 6.7472 55.3181 6.26602C55.5486 6.03382 55.8228 5.84952 56.1249 5.72376C56.4269 5.59799 56.7509 5.53325 57.0781 5.53325C57.4053 5.53325 57.7292 5.59799 58.0313 5.72376C58.3334 5.84952 58.6076 6.03382 58.8381 6.26602C59.2945 6.74628 59.5489 7.3835 59.5489 8.04602C59.5489 8.70854 59.2945 9.34576 58.8381 9.82602ZM55.7741 9.42602C56.1204 9.77092 56.5893 9.96456 57.0781 9.96456C57.5669 9.96456 58.0357 9.77092 58.3821 9.42602C58.7239 9.04924 58.9132 8.55873 58.9132 8.05002C58.9132 7.54131 58.7239 7.05081 58.3821 6.67402C58.0357 6.32912 57.5669 6.13548 57.0781 6.13548C56.5893 6.13548 56.1204 6.32912 55.7741 6.67402C55.4323 7.05081 55.243 7.54131 55.243 8.05002C55.243 8.55873 55.4323 9.04924 55.7741 9.42602ZM60.4141 10.45V5.65002H61.1661L63.5021 9.38602V5.65002H64.1181V10.45H63.4781L61.0381 6.53802V10.45H60.4141Z" fill="white"/>
<path fill-rule="evenodd" clip-rule="evenodd" d="M57.0781 5.61325C56.7614 5.61325 56.4479 5.67591 56.1556 5.79761C55.8636 5.91919 55.5985 6.0973 55.3756 6.32168C54.9354 6.78792 54.6902 7.40483 54.6902 8.04602C54.6902 8.68713 54.9354 9.30396 55.3754 9.77018C55.828 10.2198 56.4401 10.4722 57.0781 10.4722C57.7161 10.4722 58.3283 10.2198 58.7809 9.77008C59.2226 9.30479 59.4689 8.68765 59.4689 8.04602C59.4689 7.40431 59.2226 6.7871 58.7807 6.32178C58.5578 6.09735 58.2926 5.91921 58.0006 5.79761C57.7082 5.67591 57.3947 5.61325 57.0781 5.61325ZM56.0941 5.6499C56.4059 5.52008 56.7403 5.45325 57.0781 5.45325C57.4158 5.45325 57.7502 5.52008 58.0621 5.6499C58.3739 5.77972 58.6569 5.96996 58.8949 6.20966L58.8961 6.2109C59.3666 6.70603 59.6289 7.36299 59.6289 8.04602C59.6289 8.72906 59.3666 9.386 58.8961 9.88113L58.8945 9.88277C58.4118 10.3628 57.7588 10.6322 57.0781 10.6322C56.3974 10.6322 55.7443 10.3627 55.2617 9.88275L55.2599 9.88099C54.7913 9.38495 54.5302 8.7284 54.5302 8.04602C54.5302 7.36364 54.7913 6.70712 55.2599 6.21108L55.2613 6.20964C55.4992 5.96995 55.7823 5.77972 56.0941 5.6499ZM35.5243 5.618C35.207 5.61093 34.8916 5.66905 34.5976 5.78877C34.3036 5.90848 34.0373 6.08725 33.8152 6.314L33.8148 6.31441C33.4763 6.65512 33.2459 7.08816 33.1525 7.55926C33.059 8.03036 33.1066 8.51857 33.2894 8.9627C33.4722 9.40684 33.782 9.78716 34.18 10.056C34.578 10.3249 35.0464 10.4703 35.5267 10.474L35.5289 10.474C35.8446 10.4853 36.1591 10.4299 36.452 10.3114C36.7448 10.193 37.0093 10.0142 37.2284 9.78662C37.424 9.58232 37.5761 9.3404 37.6755 9.07554C37.7748 8.81064 37.8193 8.52833 37.8062 8.24572L37.8861 8.24202L37.8061 8.24199C37.8061 8.14828 37.7994 8.05471 37.786 7.96202H35.6061V8.37802H37.3447L37.342 8.46063C37.3296 8.84263 37.1801 9.20739 36.9209 9.48827L36.9178 9.49163C36.6383 9.76182 36.2849 9.94308 35.9024 10.0127C35.52 10.0824 35.1255 10.0372 34.7687 9.88285C34.4119 9.72854 34.1088 9.472 33.8976 9.14561C33.6868 8.81977 33.577 8.43888 33.5821 8.05084C33.5734 7.79099 33.6171 7.53203 33.7106 7.28943C33.8044 7.04623 33.9463 6.82447 34.1279 6.63745C34.3095 6.45043 34.5269 6.30199 34.7673 6.20105C35.0069 6.10042 35.2642 6.04906 35.5241 6.05001C35.7834 6.03621 36.0425 6.08272 36.2808 6.18592C36.4932 6.27788 36.6841 6.41261 36.8416 6.58138L37.1517 6.27125C36.9639 6.07167 36.7349 5.91495 36.4802 5.81221L36.4786 5.81159C36.1777 5.68281 35.8536 5.61693 35.5263 5.61802L35.5243 5.618ZM37.9661 8.24018C37.9799 8.54382 37.932 8.84711 37.8253 9.13172C37.7183 9.41691 37.5545 9.67739 37.3439 9.89736C37.1092 10.1411 36.8256 10.3329 36.512 10.4598C36.1986 10.5865 35.8621 10.6459 35.5243 10.634C35.013 10.6298 34.5142 10.4749 34.0904 10.1886C33.6663 9.90212 33.3362 9.49686 33.1415 9.0236C32.9467 8.55033 32.8959 8.03011 32.9955 7.52812C33.0951 7.02622 33.3405 6.56487 33.7011 6.20184C33.9385 5.95954 34.2231 5.76852 34.5372 5.64058C34.8512 5.51274 35.188 5.45061 35.5268 5.45802C35.8753 5.457 36.2204 5.52714 36.5408 5.66415C36.8417 5.78565 37.1095 5.97665 37.3224 6.22153L37.3714 6.27783L36.833 6.81626L36.7768 6.7495C36.6252 6.56907 36.4336 6.4264 36.2173 6.33275C36.0009 6.2391 35.7658 6.19704 35.5304 6.2099L35.5257 6.21016C35.2866 6.20899 35.0497 6.25597 34.8292 6.34857C34.6088 6.44117 34.4093 6.57733 34.2427 6.7489C34.0761 6.92046 33.9459 7.1239 33.8599 7.347C33.7739 7.57011 33.7338 7.80829 33.742 8.04726L33.7422 8.05115C33.7371 8.40825 33.8379 8.75885 34.0319 9.0587C34.2259 9.35855 34.5044 9.59423 34.8322 9.736C35.16 9.87777 35.5224 9.91929 35.8738 9.85531C36.2244 9.79146 36.5483 9.62543 36.8048 9.37809C37.0183 9.14602 37.1487 8.85057 37.177 8.53802H35.4461V7.80202H37.921L37.9328 7.86788C37.9549 7.99076 37.966 8.11535 37.9661 8.24018ZM38.6701 5.57002H41.6301V6.32202H39.4701V7.68202H41.4381V8.41802H39.4701V9.77802H41.6301V10.53H38.6701V5.57002ZM38.8301 5.73002V10.37H41.4701V9.93802H39.3101V8.25802H41.2781V7.84202H39.3101V6.16202H41.4701V5.73002H38.8301ZM42.1341 5.57002H45.6301V6.32202H44.2541V10.53H43.4781V6.32202H42.1341V5.57002ZM42.2941 5.73002V6.16202H43.6381V10.37H44.0941V6.16202H45.4701V5.73002H42.2941ZM47.8221 5.57002H48.5981V10.53H47.8221V5.57002ZM47.9821 5.73002V10.37H48.4381V5.73002H47.9821ZM49.2141 5.57002H52.6701V6.32202H51.3341V10.53H50.5581V6.32202H49.2141V5.57002ZM49.3741 5.73002V6.16202H50.7181V10.37H51.1741V6.16202H52.5101V5.73002H49.3741ZM60.3341 5.57002H61.2104L63.4221 9.10718V5.57002H64.1981V10.53H63.4337L61.1181 6.81745V10.53H60.3341V5.57002ZM60.4941 5.73002V10.37H60.9581V6.25859L63.5225 10.37H64.0381V5.73002H63.5821V9.66486L61.1217 5.73002H60.4941ZM55.7176 6.61733C56.079 6.25751 56.5681 6.05548 57.0781 6.05548C57.588 6.05548 58.0772 6.25751 58.4385 6.61733L58.4414 6.6202C58.7965 7.01171 58.9932 7.52144 58.9932 8.05002C58.9932 8.5786 58.7965 9.08827 58.4413 9.47977L58.4386 9.48278C58.0773 9.84261 57.588 10.0446 57.0781 10.0446C56.5681 10.0446 56.079 9.84254 55.7176 9.48271L55.7741 9.42602L55.7148 9.47977C55.3597 9.08827 55.163 8.5786 55.163 8.05002C55.163 7.52144 55.3597 7.01177 55.7148 6.62027L55.7176 6.61733ZM55.832 9.37077C56.1632 9.69984 56.6111 9.88456 57.0781 9.88456C57.545 9.88456 57.993 9.69984 58.3242 9.37077C58.6518 9.0089 58.8332 8.53819 58.8332 8.05002C58.8332 7.56185 58.6518 7.09114 58.3242 6.72927C57.993 6.4002 57.545 6.21548 57.0781 6.21548C56.6111 6.21548 56.1632 6.4002 55.832 6.72927C55.5044 7.09114 55.323 7.56185 55.323 8.05002C55.323 8.53819 55.5044 9.0089 55.832 9.37077Z" fill="white"/>
<path d="M8.35182 6.03201C8.09108 6.3449 7.95947 6.74545 7.98382 7.15201V24.848C7.95947 25.2546 8.09108 25.6551 8.35182 25.968L8.40782 26.024L18.3198 16.12V15.888L8.40782 5.97601L8.35182 6.03201Z" fill="url(#paint0_linear_37810_4)"/>
<path d="M21.5998 19.424L18.3198 16.12V15.888L21.5998 12.576L21.6718 12.616L25.5998 14.848C26.7198 15.48 26.7198 16.52 25.5998 17.16L21.6878 19.384L21.5998 19.424Z" fill="url(#paint1_linear_37810_4)"/>
<path d="M21.6958 19.376L18.3198 16L8.35181 25.968C8.5801 26.1687 8.87132 26.2833 9.17515 26.2921C9.47898 26.3008 9.77633 26.2032 10.0158 26.016L21.7038 19.376" fill="url(#paint2_linear_37810_4)"/>
<path d="M21.6957 12.624L10.0077 5.98401C9.76827 5.79683 9.47092 5.69918 9.16709 5.70794C8.86326 5.7167 8.57204 5.83133 8.34375 6.03202L18.3198 16L21.6957 12.624Z" fill="url(#paint3_linear_37810_4)"/>
<path opacity="0.2" d="M21.5998 19.304L10.0078 25.904C9.77684 26.0767 9.49619 26.17 9.20781 26.17C8.91942 26.17 8.63877 26.0767 8.40781 25.904L8.35181 25.96L8.40781 26.016C8.63825 26.1899 8.9191 26.284 9.20781 26.284C9.49652 26.284 9.77736 26.1899 10.0078 26.016L21.6958 19.376L21.5998 19.304Z" fill="black"/>
<path opacity="0.12" d="M8.35182 25.856C8.09108 25.5431 7.95947 25.1426 7.98382 24.736V24.856C7.95947 25.2626 8.09108 25.6631 8.35182 25.976L8.40782 25.92L8.35182 25.856ZM25.5998 17.04L21.5998 19.304L21.6718 19.376L25.5998 17.152C25.8227 17.0473 26.014 16.8857 26.1545 16.6834C26.2949 16.4811 26.3796 16.2454 26.3998 16C26.3548 16.223 26.2593 16.4326 26.1206 16.6129C25.982 16.7932 25.8038 16.9393 25.5998 17.04Z" fill="black"/>
<path opacity="0.25" d="M10.0078 6.09571L25.5998 14.9597C25.8038 15.0604 25.982 15.2065 26.1207 15.3868C26.2593 15.5671 26.3548 15.7767 26.3998 15.9997C26.3796 15.7543 26.2949 15.5186 26.1545 15.3163C26.014 15.114 25.8227 14.9524 25.5998 14.8477L10.0078 5.98371C8.88783 5.35171 7.97583 5.87971 7.97583 7.15971V7.27971C7.99983 5.99171 8.89583 5.46371 10.0078 6.09571V6.09571Z" fill="white"/>
<defs>
<linearGradient id="paint0_linear_37810_4" x1="17.4398" y1="6.96801" x2="4.01582" y2="20.392" gradientUnits="userSpaceOnUse">
<stop stop-color="#00A0FF"/>
<stop offset="0.01" stop-color="#00A1FF"/>
<stop offset="0.26" stop-color="#00BEFF"/>
<stop offset="0.51" stop-color="#00D2FF"/>
<stop offset="0.76" stop-color="#00DFFF"/>
<stop offset="1" stop-color="#00E3FF"/>
</linearGradient>
<linearGradient id="paint1_linear_37810_4" x1="27.0638" y1="16" x2="7.71183" y2="16" gradientUnits="userSpaceOnUse">
<stop stop-color="#FFE000"/>
<stop offset="0.41" stop-color="#FFBD00"/>
<stop offset="0.78" stop-color="#FFA500"/>
<stop offset="1" stop-color="#FF9C00"/>
</linearGradient>
<linearGradient id="paint2_linear_37810_4" x1="19.8638" y1="17.84" x2="1.65581" y2="36.04" gradientUnits="userSpaceOnUse">
<stop stop-color="#FF3A44"/>
<stop offset="1" stop-color="#C31162"/>
</linearGradient>
<linearGradient id="paint3_linear_37810_4" x1="5.83975" y1="0.144015" x2="13.9677" y2="8.27201" gradientUnits="userSpaceOnUse">
<stop stop-color="#32A071"/>
<stop offset="0.07" stop-color="#2DA771"/>
<stop offset="0.48" stop-color="#15CF74"/>
<stop offset="0.8" stop-color="#06E775"/>
<stop offset="1" stop-color="#00F076"/>
</linearGradient>
</defs>
</svg>
