<svg width="108" height="32" viewBox="0 0 108 32" fill="none" xmlns="http://www.w3.org/2000/svg">
<path d="M104 0H4C1.79086 0 0 1.79086 0 4V28C0 30.2091 1.79086 32 4 32H104C106.209 32 108 30.2091 108 28V4C108 1.79086 106.209 0 104 0Z" fill="black"/>
<path d="M104 0.64C104.891 0.64 105.746 0.993999 106.376 1.62412C107.006 2.25424 107.36 3.10887 107.36 4V28C107.36 28.8911 107.006 29.7458 106.376 30.3759C105.746 31.006 104.891 31.36 104 31.36H4C3.10887 31.36 2.25424 31.006 1.62412 30.3759C0.993999 29.7458 0.64 28.8911 0.64 28V4C0.64 3.10887 0.993999 2.25424 1.62412 1.62412C2.25424 0.993999 3.10887 0.64 4 0.64H104ZM104 0H4C2.93913 0 1.92172 0.421427 1.17157 1.17157C0.421427 1.92172 0 2.93913 0 4V28C0 29.0609 0.421427 30.0783 1.17157 30.8284C1.92172 31.5786 2.93913 32 4 32H104C105.061 32 106.078 31.5786 106.828 30.8284C107.579 30.0783 108 29.0609 108 28V4C108 2.93913 107.579 1.92172 106.828 1.17157C106.078 0.421427 105.061 0 104 0Z" fill="#A6A6A6"/>
<path d="M34.0933 17.5182H35.9648L37.7128 22.2967H37.7413L39.4703 17.5182H41.3513V24.2442H40.1638V18.8387H40.1448L38.1023 24.2442H37.2663L35.2523 18.8387H35.2333V24.2442H34.0933V17.5182Z" fill="white"/>
<path d="M42.7945 19.6842H43.9345V24.2442H42.7945V19.6842ZM42.633 18.1357C42.633 17.9521 42.6995 17.7937 42.8325 17.6607C42.9719 17.5214 43.146 17.4517 43.355 17.4517C43.564 17.4517 43.7382 17.5182 43.8775 17.6512C44.0232 17.7779 44.096 17.9394 44.096 18.1357C44.096 18.3321 44.0232 18.4967 43.8775 18.6297C43.7382 18.7564 43.564 18.8197 43.355 18.8197C43.146 18.8197 42.9719 18.7532 42.8325 18.6202C42.6995 18.4809 42.633 18.3194 42.633 18.1357Z" fill="white"/>
<path d="M48.4335 20.9477C48.3448 20.8211 48.2118 20.7166 48.0345 20.6342C47.8572 20.5456 47.6767 20.5012 47.493 20.5012C47.284 20.5012 47.1003 20.5456 46.942 20.6342C46.7837 20.7166 46.6507 20.8274 46.543 20.9667C46.4417 21.1061 46.3657 21.2644 46.315 21.4417C46.2643 21.6127 46.239 21.7869 46.239 21.9642C46.239 22.1416 46.2643 22.3189 46.315 22.4962C46.372 22.6672 46.4543 22.8224 46.562 22.9617C46.6697 23.1011 46.8027 23.2151 46.961 23.3037C47.1257 23.3861 47.3157 23.4272 47.531 23.4272C47.7083 23.4272 47.8857 23.3924 48.063 23.3227C48.2403 23.2531 48.3828 23.1517 48.4905 23.0187L49.203 23.7407C49.013 23.9434 48.7692 24.1017 48.4715 24.2157C48.1802 24.3234 47.8635 24.3772 47.5215 24.3772C47.1858 24.3772 46.866 24.3234 46.562 24.2157C46.2643 24.1081 46.0015 23.9497 45.7735 23.7407C45.5518 23.5317 45.3745 23.2784 45.2415 22.9807C45.1148 22.6831 45.0515 22.3442 45.0515 21.9642C45.0515 21.5969 45.1148 21.2644 45.2415 20.9667C45.3745 20.6691 45.5518 20.4157 45.7735 20.2067C45.9952 19.9977 46.2517 19.8362 46.543 19.7222C46.8407 19.6082 47.1573 19.5512 47.493 19.5512C47.8287 19.5512 48.1517 19.6146 48.462 19.7412C48.7787 19.8679 49.0288 20.0421 49.2125 20.2637L48.4335 20.9477Z" fill="white"/>
<path d="M49.9562 19.6842H51.0487V20.4442H51.0677C51.1944 20.1782 51.3717 19.9629 51.5997 19.7982C51.8277 19.6336 52.0937 19.5512 52.3977 19.5512C52.442 19.5512 52.4895 19.5544 52.5402 19.5607C52.5909 19.5607 52.6352 19.5671 52.6732 19.5797V20.6247C52.5972 20.6057 52.5307 20.5931 52.4737 20.5867C52.423 20.5804 52.3724 20.5772 52.3217 20.5772C52.062 20.5772 51.853 20.6247 51.6947 20.7197C51.5363 20.8147 51.4129 20.9287 51.3242 21.0617C51.2355 21.1947 51.1754 21.3309 51.1437 21.4702C51.112 21.6096 51.0962 21.7204 51.0962 21.8027V24.2442H49.9562V19.6842Z" fill="white"/>
<path d="M52.9836 21.9452C52.9836 21.5842 53.047 21.2581 53.1736 20.9667C53.3066 20.6691 53.484 20.4157 53.7056 20.2067C53.9273 19.9977 54.1901 19.8362 54.4941 19.7222C54.7981 19.6082 55.1211 19.5512 55.4631 19.5512C55.8051 19.5512 56.1281 19.6082 56.4321 19.7222C56.7361 19.8362 56.999 19.9977 57.2206 20.2067C57.4423 20.4157 57.6165 20.6691 57.7431 20.9667C57.8761 21.2581 57.9426 21.5842 57.9426 21.9452C57.9426 22.3062 57.8761 22.6356 57.7431 22.9332C57.6165 23.2309 57.4423 23.4874 57.2206 23.7027C56.999 23.9117 56.7361 24.0764 56.4321 24.1967C56.1281 24.3171 55.8051 24.3772 55.4631 24.3772C55.1211 24.3772 54.7981 24.3171 54.4941 24.1967C54.1901 24.0764 53.9273 23.9117 53.7056 23.7027C53.484 23.4874 53.3066 23.2309 53.1736 22.9332C53.047 22.6356 52.9836 22.3062 52.9836 21.9452ZM54.1426 21.9452C54.1426 22.1226 54.168 22.2999 54.2186 22.4772C54.2756 22.6546 54.358 22.8129 54.4656 22.9522C54.5733 23.0916 54.7095 23.2056 54.8741 23.2942C55.0388 23.3829 55.2351 23.4272 55.4631 23.4272C55.6911 23.4272 55.8875 23.3829 56.0521 23.2942C56.2168 23.2056 56.353 23.0916 56.4606 22.9522C56.5683 22.8129 56.6475 22.6546 56.6981 22.4772C56.7551 22.2999 56.7836 22.1226 56.7836 21.9452C56.7836 21.7679 56.7551 21.5937 56.6981 21.4227C56.6475 21.2454 56.5683 21.0871 56.4606 20.9477C56.353 20.8084 56.2168 20.6976 56.0521 20.6152C55.8875 20.5266 55.6911 20.4822 55.4631 20.4822C55.2351 20.4822 55.0388 20.5266 54.8741 20.6152C54.7095 20.6976 54.5733 20.8084 54.4656 20.9477C54.358 21.0871 54.2756 21.2454 54.2186 21.4227C54.168 21.5937 54.1426 21.7679 54.1426 21.9452Z" fill="white"/>
<path d="M61.5465 20.9002C61.4451 20.7672 61.3058 20.6532 61.1285 20.5582C60.9511 20.4569 60.758 20.4062 60.549 20.4062C60.3653 20.4062 60.1975 20.4442 60.0455 20.5202C59.8935 20.5962 59.8175 20.7229 59.8175 20.9002C59.8175 21.0776 59.8998 21.2042 60.0645 21.2802C60.2355 21.3499 60.4825 21.4227 60.8055 21.4987C60.9765 21.5367 61.1475 21.5874 61.3185 21.6507C61.4958 21.7141 61.6541 21.7996 61.7935 21.9072C61.9391 22.0086 62.0563 22.1384 62.145 22.2967C62.2336 22.4487 62.278 22.6356 62.278 22.8572C62.278 23.1359 62.2241 23.3734 62.1165 23.5697C62.0151 23.7597 61.8758 23.9149 61.6985 24.0352C61.5275 24.1556 61.3248 24.2411 61.0905 24.2917C60.8625 24.3487 60.625 24.3772 60.378 24.3772C60.0233 24.3772 59.6781 24.3139 59.3425 24.1872C59.0068 24.0542 58.7281 23.8674 58.5065 23.6267L59.257 22.9237C59.3836 23.0884 59.5483 23.2246 59.751 23.3322C59.9536 23.4399 60.1785 23.4937 60.4255 23.4937C60.5078 23.4937 60.5901 23.4842 60.6725 23.4652C60.7611 23.4462 60.8403 23.4177 60.91 23.3797C60.986 23.3354 61.0461 23.2784 61.0905 23.2087C61.1348 23.1391 61.157 23.0536 61.157 22.9522C61.157 22.7622 61.0683 22.6261 60.891 22.5437C60.72 22.4614 60.4603 22.3791 60.112 22.2967C59.941 22.2587 59.7731 22.2112 59.6085 22.1542C59.4501 22.0909 59.3076 22.0117 59.181 21.9167C59.0543 21.8154 58.953 21.6919 58.877 21.5462C58.801 21.4006 58.763 21.2201 58.763 21.0047C58.763 20.7514 58.8136 20.5329 58.915 20.3492C59.0226 20.1656 59.162 20.0167 59.333 19.9027C59.504 19.7824 59.6971 19.6937 59.9125 19.6367C60.1278 19.5797 60.3495 19.5512 60.5775 19.5512C60.9068 19.5512 61.2266 19.6082 61.537 19.7222C61.8536 19.8362 62.1038 20.0104 62.2875 20.2447L61.5465 20.9002Z" fill="white"/>
<path d="M63.0032 21.9452C63.0032 21.5842 63.0665 21.2581 63.1932 20.9667C63.3262 20.6691 63.5035 20.4157 63.7252 20.2067C63.9468 19.9977 64.2097 19.8362 64.5137 19.7222C64.8177 19.6082 65.1407 19.5512 65.4827 19.5512C65.8247 19.5512 66.1477 19.6082 66.4517 19.7222C66.7557 19.8362 67.0185 19.9977 67.2402 20.2067C67.4618 20.4157 67.636 20.6691 67.7627 20.9667C67.8957 21.2581 67.9622 21.5842 67.9622 21.9452C67.9622 22.3062 67.8957 22.6356 67.7627 22.9332C67.636 23.2309 67.4618 23.4874 67.2402 23.7027C67.0185 23.9117 66.7557 24.0764 66.4517 24.1967C66.1477 24.3171 65.8247 24.3772 65.4827 24.3772C65.1407 24.3772 64.8177 24.3171 64.5137 24.1967C64.2097 24.0764 63.9468 23.9117 63.7252 23.7027C63.5035 23.4874 63.3262 23.2309 63.1932 22.9332C63.0665 22.6356 63.0032 22.3062 63.0032 21.9452ZM64.1622 21.9452C64.1622 22.1226 64.1875 22.2999 64.2382 22.4772C64.2952 22.6546 64.3775 22.8129 64.4852 22.9522C64.5928 23.0916 64.729 23.2056 64.8937 23.2942C65.0583 23.3829 65.2547 23.4272 65.4827 23.4272C65.7107 23.4272 65.907 23.3829 66.0717 23.2942C66.2363 23.2056 66.3725 23.0916 66.4802 22.9522C66.5878 22.8129 66.667 22.6546 66.7177 22.4772C66.7747 22.2999 66.8032 22.1226 66.8032 21.9452C66.8032 21.7679 66.7747 21.5937 66.7177 21.4227C66.667 21.2454 66.5878 21.0871 66.4802 20.9477C66.3725 20.8084 66.2363 20.6976 66.0717 20.6152C65.907 20.5266 65.7107 20.4822 65.4827 20.4822C65.2547 20.4822 65.0583 20.5266 64.8937 20.6152C64.729 20.6976 64.5928 20.8084 64.4852 20.9477C64.3775 21.0871 64.2952 21.2454 64.2382 21.4227C64.1875 21.5937 64.1622 21.7679 64.1622 21.9452Z" fill="white"/>
<path d="M69.248 20.5962H68.3835V19.6842H69.248V19.0097C69.248 18.7374 69.2765 18.4777 69.3335 18.2307C69.3968 17.9774 69.4982 17.7557 69.6375 17.5657C69.7832 17.3757 69.9732 17.2269 70.2075 17.1192C70.4418 17.0052 70.7363 16.9482 71.091 16.9482C71.2177 16.9482 71.3222 16.9546 71.4045 16.9672C71.4932 16.9736 71.5818 16.9894 71.6705 17.0147L71.5945 17.9837C71.5312 17.9647 71.4615 17.9489 71.3855 17.9362C71.3158 17.9236 71.2398 17.9172 71.1575 17.9172C70.9928 17.9172 70.8598 17.9489 70.7585 18.0122C70.6572 18.0756 70.578 18.1579 70.521 18.2592C70.4703 18.3606 70.4355 18.4714 70.4165 18.5917C70.3975 18.7121 70.388 18.8292 70.388 18.9432V19.6842H71.4425V20.5962H70.388V24.2442H69.248V20.5962Z" fill="white"/>
<path d="M71.3529 20.5962V19.6842H72.1509V18.3637H73.2719V19.6842H74.4119V20.5962H73.2719V22.7147C73.2719 22.9174 73.3068 23.0852 73.3764 23.2182C73.4524 23.3512 73.6171 23.4177 73.8704 23.4177C73.9464 23.4177 74.0288 23.4114 74.1174 23.3987C74.2061 23.3797 74.2853 23.3544 74.3549 23.3227L74.3929 24.2157C74.2916 24.2537 74.1713 24.2822 74.0319 24.3012C73.8926 24.3266 73.7596 24.3392 73.6329 24.3392C73.3289 24.3392 73.0819 24.2981 72.8919 24.2157C72.7019 24.1271 72.5499 24.0099 72.4359 23.8642C72.3283 23.7122 72.2523 23.5412 72.2079 23.3512C72.1699 23.1549 72.1509 22.9459 72.1509 22.7242V20.5962H71.3529Z" fill="white"/>
<path d="M81.0984 18.9242C80.9718 18.7596 80.7913 18.6234 80.5569 18.5157C80.3289 18.4017 80.0978 18.3447 79.8634 18.3447C79.7241 18.3447 79.5848 18.3637 79.4454 18.4017C79.3061 18.4334 79.1794 18.4872 79.0654 18.5632C78.9514 18.6329 78.8564 18.7279 78.7804 18.8482C78.7108 18.9622 78.6759 19.1016 78.6759 19.2662C78.6759 19.4182 78.7076 19.5481 78.7709 19.6557C78.8343 19.7634 78.9198 19.8552 79.0274 19.9312C79.1414 20.0072 79.2776 20.0737 79.4359 20.1307C79.5943 20.1877 79.7684 20.2447 79.9584 20.3017C80.1738 20.3714 80.3954 20.4506 80.6234 20.5392C80.8578 20.6279 81.0699 20.7451 81.2599 20.8907C81.4563 21.0364 81.6146 21.2201 81.7349 21.4417C81.8616 21.6634 81.9249 21.9389 81.9249 22.2682C81.9249 22.6292 81.8584 22.9459 81.7254 23.2182C81.5924 23.4842 81.4151 23.7059 81.1934 23.8832C80.9718 24.0606 80.7121 24.1936 80.4144 24.2822C80.1168 24.3709 79.8033 24.4152 79.4739 24.4152C79.0369 24.4152 78.6094 24.3361 78.1914 24.1777C77.7734 24.0131 77.4314 23.7724 77.1654 23.4557L78.0204 22.6577C78.1851 22.8857 78.4036 23.0662 78.6759 23.1992C78.9546 23.3322 79.2269 23.3987 79.4929 23.3987C79.6323 23.3987 79.7748 23.3829 79.9204 23.3512C80.0661 23.3132 80.1959 23.2531 80.3099 23.1707C80.4303 23.0884 80.5253 22.9871 80.5949 22.8667C80.6709 22.7401 80.7089 22.5849 80.7089 22.4012C80.7089 22.2239 80.6678 22.0782 80.5854 21.9642C80.5031 21.8439 80.3923 21.7426 80.2529 21.6602C80.1136 21.5716 79.9489 21.4956 79.7589 21.4322C79.5689 21.3689 79.3694 21.3024 79.1604 21.2327C78.9578 21.1694 78.7551 21.0934 78.5524 21.0047C78.3498 20.9161 78.1661 20.7989 78.0014 20.6532C77.8431 20.5076 77.7133 20.3302 77.6119 20.1212C77.5106 19.9059 77.4599 19.6399 77.4599 19.3232C77.4599 18.9812 77.5296 18.6867 77.6689 18.4397C77.8146 18.1927 78.0014 17.9901 78.2294 17.8317C78.4638 17.6671 78.7266 17.5467 79.0179 17.4707C79.3156 17.3884 79.6164 17.3472 79.9204 17.3472C80.2624 17.3472 80.6076 17.4074 80.9559 17.5277C81.3106 17.6481 81.6178 17.8286 81.8774 18.0692L81.0984 18.9242Z" fill="white"/>
<path d="M82.3559 20.5962V19.6842H83.1539V18.3637H84.2749V19.6842H85.4149V20.5962H84.2749V22.7147C84.2749 22.9174 84.3097 23.0852 84.3794 23.2182C84.4554 23.3512 84.62 23.4177 84.8734 23.4177C84.9494 23.4177 85.0317 23.4114 85.1204 23.3987C85.209 23.3797 85.2882 23.3544 85.3579 23.3227L85.3959 24.2157C85.2945 24.2537 85.1742 24.2822 85.0349 24.3012C84.8955 24.3266 84.7625 24.3392 84.6359 24.3392C84.3319 24.3392 84.0849 24.2981 83.8949 24.2157C83.7049 24.1271 83.5529 24.0099 83.4389 23.8642C83.3312 23.7122 83.2552 23.5412 83.2109 23.3512C83.1729 23.1549 83.1539 22.9459 83.1539 22.7242V20.5962H82.3559Z" fill="white"/>
<path d="M85.9739 21.9452C85.9739 21.5842 86.0372 21.2581 86.1639 20.9667C86.2969 20.6691 86.4742 20.4157 86.6959 20.2067C86.9175 19.9977 87.1804 19.8362 87.4844 19.7222C87.7884 19.6082 88.1114 19.5512 88.4534 19.5512C88.7954 19.5512 89.1184 19.6082 89.4224 19.7222C89.7264 19.8362 89.9892 19.9977 90.2109 20.2067C90.4325 20.4157 90.6067 20.6691 90.7334 20.9667C90.8664 21.2581 90.9329 21.5842 90.9329 21.9452C90.9329 22.3062 90.8664 22.6356 90.7334 22.9332C90.6067 23.2309 90.4325 23.4874 90.2109 23.7027C89.9892 23.9117 89.7264 24.0764 89.4224 24.1967C89.1184 24.3171 88.7954 24.3772 88.4534 24.3772C88.1114 24.3772 87.7884 24.3171 87.4844 24.1967C87.1804 24.0764 86.9175 23.9117 86.6959 23.7027C86.4742 23.4874 86.2969 23.2309 86.1639 22.9332C86.0372 22.6356 85.9739 22.3062 85.9739 21.9452ZM87.1329 21.9452C87.1329 22.1226 87.1582 22.2999 87.2089 22.4772C87.2659 22.6546 87.3482 22.8129 87.4559 22.9522C87.5635 23.0916 87.6997 23.2056 87.8644 23.2942C88.029 23.3829 88.2254 23.4272 88.4534 23.4272C88.6814 23.4272 88.8777 23.3829 89.0424 23.2942C89.207 23.2056 89.3432 23.0916 89.4509 22.9522C89.5585 22.8129 89.6377 22.6546 89.6884 22.4772C89.7454 22.2999 89.7739 22.1226 89.7739 21.9452C89.7739 21.7679 89.7454 21.5937 89.6884 21.4227C89.6377 21.2454 89.5585 21.0871 89.4509 20.9477C89.3432 20.8084 89.207 20.6976 89.0424 20.6152C88.8777 20.5266 88.6814 20.4822 88.4534 20.4822C88.2254 20.4822 88.029 20.5266 87.8644 20.6152C87.6997 20.6976 87.5635 20.8084 87.4559 20.9477C87.3482 21.0871 87.2659 21.2454 87.2089 21.4227C87.1582 21.5937 87.1329 21.7679 87.1329 21.9452Z" fill="white"/>
<path d="M92.0382 19.6842H93.1307V20.4442H93.1497C93.2764 20.1782 93.4537 19.9629 93.6817 19.7982C93.9097 19.6336 94.1757 19.5512 94.4797 19.5512C94.524 19.5512 94.5715 19.5544 94.6222 19.5607C94.6729 19.5607 94.7172 19.5671 94.7552 19.5797V20.6247C94.6792 20.6057 94.6127 20.5931 94.5557 20.5867C94.505 20.5804 94.4544 20.5772 94.4037 20.5772C94.144 20.5772 93.935 20.6247 93.7767 20.7197C93.6184 20.8147 93.4949 20.9287 93.4062 21.0617C93.3175 21.1947 93.2574 21.3309 93.2257 21.4702C93.194 21.6096 93.1782 21.7204 93.1782 21.8027V24.2442H92.0382V19.6842Z" fill="white"/>
<path d="M98.5427 21.5082C98.5427 21.3626 98.5205 21.2232 98.4762 21.0902C98.4382 20.9572 98.3748 20.8401 98.2862 20.7387C98.1975 20.6374 98.0835 20.5582 97.9442 20.5012C97.8112 20.4379 97.6528 20.4062 97.4692 20.4062C97.1272 20.4062 96.8358 20.5107 96.5952 20.7197C96.3608 20.9224 96.231 21.1852 96.2057 21.5082H98.5427ZM99.6827 22.0212C99.6827 22.0719 99.6827 22.1226 99.6827 22.1732C99.6827 22.2239 99.6795 22.2746 99.6732 22.3252H96.2057C96.2183 22.4899 96.2595 22.6419 96.3292 22.7812C96.4052 22.9142 96.5033 23.0314 96.6237 23.1327C96.744 23.2277 96.8802 23.3037 97.0322 23.3607C97.1842 23.4177 97.3425 23.4462 97.5072 23.4462C97.7922 23.4462 98.0328 23.3956 98.2292 23.2942C98.4255 23.1866 98.587 23.0409 98.7137 22.8572L99.4737 23.4652C99.024 24.0732 98.3717 24.3772 97.5167 24.3772C97.162 24.3772 96.8358 24.3234 96.5382 24.2157C96.2405 24.1017 95.9808 23.9434 95.7592 23.7407C95.5438 23.5381 95.3728 23.2911 95.2462 22.9997C95.1258 22.7021 95.0657 22.3664 95.0657 21.9927C95.0657 21.6254 95.1258 21.2929 95.2462 20.9952C95.3728 20.6912 95.5438 20.4347 95.7592 20.2257C95.9745 20.0104 96.2278 19.8457 96.5192 19.7317C96.8168 19.6114 97.1367 19.5512 97.4787 19.5512C97.7953 19.5512 98.0867 19.6051 98.3527 19.7127C98.625 19.8141 98.8593 19.9692 99.0557 20.1782C99.252 20.3809 99.404 20.6374 99.5117 20.9477C99.6257 21.2517 99.6827 21.6096 99.6827 22.0212Z" fill="white"/>
<path d="M38.3122 8.24822C38.1415 8.06155 37.9229 7.91222 37.6562 7.80022C37.3949 7.68822 37.1015 7.63222 36.7762 7.63222C36.4455 7.63222 36.1469 7.69355 35.8802 7.81622C35.6135 7.93355 35.3869 8.09622 35.2002 8.30422C35.0135 8.51222 34.8695 8.75489 34.7682 9.03222C34.6669 9.30422 34.6162 9.59489 34.6162 9.90422C34.6162 10.2189 34.6669 10.5149 34.7682 10.7922C34.8695 11.0696 35.0135 11.3122 35.2002 11.5202C35.3869 11.7229 35.6162 11.8829 35.8882 12.0002C36.1602 12.1176 36.4642 12.1762 36.8002 12.1762C37.0669 12.1762 37.3122 12.1522 37.5362 12.1042C37.7602 12.0562 37.9549 11.9869 38.1202 11.8962V10.3202H36.8642V9.64822H38.9042V12.3922C38.6055 12.5522 38.2802 12.6749 37.9282 12.7602C37.5762 12.8456 37.1922 12.8882 36.7762 12.8882C36.3335 12.8882 35.9255 12.8162 35.5522 12.6722C35.1842 12.5229 34.8669 12.3176 34.6002 12.0562C34.3335 11.7896 34.1255 11.4749 33.9762 11.1122C33.8269 10.7442 33.7522 10.3416 33.7522 9.90422C33.7522 9.46155 33.8269 9.05889 33.9762 8.69622C34.1309 8.32822 34.3415 8.01622 34.6082 7.76022C34.8802 7.49888 35.2002 7.29622 35.5682 7.15222C35.9362 7.00822 36.3362 6.93622 36.7682 6.93622C37.2215 6.93622 37.6242 7.00288 37.9762 7.13622C38.3335 7.26955 38.6295 7.44822 38.8642 7.67222L38.3122 8.24822Z" fill="white"/>
<path d="M43.0028 10.5122C42.9974 10.3629 42.9708 10.2242 42.9228 10.0962C42.8801 9.96289 42.8134 9.84822 42.7228 9.75222C42.6374 9.65622 42.5281 9.58155 42.3948 9.52822C42.2668 9.46955 42.1148 9.44022 41.9388 9.44022C41.7788 9.44022 41.6268 9.46955 41.4828 9.52822C41.3441 9.58155 41.2214 9.65622 41.1148 9.75222C41.0134 9.84822 40.9281 9.96289 40.8588 10.0962C40.7948 10.2242 40.7574 10.3629 40.7468 10.5122H43.0028ZM43.7628 10.8162C43.7628 10.8589 43.7628 10.9016 43.7628 10.9442C43.7628 10.9869 43.7601 11.0296 43.7548 11.0722H40.7468C40.7521 11.2322 40.7868 11.3842 40.8508 11.5282C40.9201 11.6669 41.0108 11.7896 41.1228 11.8962C41.2348 11.9976 41.3628 12.0776 41.5068 12.1362C41.6561 12.1949 41.8134 12.2242 41.9788 12.2242C42.2348 12.2242 42.4561 12.1682 42.6428 12.0562C42.8294 11.9442 42.9761 11.8082 43.0828 11.6482L43.6108 12.0722C43.4081 12.3389 43.1681 12.5362 42.8908 12.6642C42.6188 12.7869 42.3148 12.8482 41.9788 12.8482C41.6908 12.8482 41.4241 12.8002 41.1788 12.7042C40.9334 12.6082 40.7228 12.4749 40.5468 12.3042C40.3708 12.1282 40.2321 11.9176 40.1308 11.6722C40.0294 11.4269 39.9788 11.1549 39.9788 10.8562C39.9788 10.5629 40.0268 10.2936 40.1228 10.0482C40.2241 9.79755 40.3628 9.58422 40.5388 9.40822C40.7148 9.23222 40.9228 9.09622 41.1628 9.00022C41.4028 8.89889 41.6614 8.84822 41.9388 8.84822C42.2161 8.84822 42.4668 8.89355 42.6908 8.98422C42.9201 9.07489 43.1121 9.20555 43.2668 9.37622C43.4268 9.54689 43.5494 9.75489 43.6348 10.0002C43.7201 10.2402 43.7628 10.5122 43.7628 10.8162Z" fill="white"/>
<path d="M46.6687 9.56822H45.6607V11.5442C45.6607 11.7736 45.7034 11.9389 45.7887 12.0402C45.874 12.1362 46.01 12.1842 46.1967 12.1842C46.266 12.1842 46.3407 12.1762 46.4207 12.1602C46.5007 12.1442 46.5727 12.1202 46.6367 12.0882L46.6607 12.7042C46.57 12.7362 46.4687 12.7602 46.3567 12.7762C46.25 12.7976 46.138 12.8082 46.0207 12.8082C45.6634 12.8082 45.3887 12.7096 45.1967 12.5122C45.01 12.3149 44.9167 12.0189 44.9167 11.6242V9.56822H44.1887V8.95222H44.9167V7.86422H45.6607V8.95222H46.6687V9.56822Z" fill="white"/>
<path d="M50.2055 12.7442H49.4535V8.95222H50.2055V12.7442ZM50.3335 7.58422C50.3335 7.72288 50.2828 7.83755 50.1815 7.92822C50.0855 8.01888 49.9682 8.06422 49.8295 8.06422C49.6908 8.06422 49.5735 8.01888 49.4775 7.92822C49.3815 7.83222 49.3335 7.71755 49.3335 7.58422C49.3335 7.44555 49.3815 7.33088 49.4775 7.24022C49.5735 7.14422 49.6908 7.09622 49.8295 7.09622C49.9682 7.09622 50.0855 7.14422 50.1815 7.24022C50.2828 7.33088 50.3335 7.44555 50.3335 7.58422Z" fill="white"/>
<path d="M53.3718 9.56822H52.3638V11.5442C52.3638 11.7736 52.4065 11.9389 52.4918 12.0402C52.5772 12.1362 52.7132 12.1842 52.8998 12.1842C52.9692 12.1842 53.0438 12.1762 53.1238 12.1602C53.2038 12.1442 53.2758 12.1202 53.3398 12.0882L53.3638 12.7042C53.2732 12.7362 53.1718 12.7602 53.0598 12.7762C52.9532 12.7976 52.8412 12.8082 52.7238 12.8082C52.3665 12.8082 52.0918 12.7096 51.8998 12.5122C51.7132 12.3149 51.6198 12.0189 51.6198 11.6242V9.56822H50.8918V8.95222H51.6198V7.86422H52.3638V8.95222H53.3718V9.56822Z" fill="white"/>
<path d="M59.9886 10.8402C59.9886 11.1336 59.9353 11.4029 59.8286 11.6482C59.7273 11.8936 59.5833 12.1069 59.3966 12.2882C59.2153 12.4642 58.9993 12.6029 58.7486 12.7042C58.498 12.8002 58.2286 12.8482 57.9406 12.8482C57.6526 12.8482 57.3833 12.8002 57.1326 12.7042C56.882 12.6029 56.666 12.4642 56.4846 12.2882C56.3033 12.1069 56.1593 11.8936 56.0526 11.6482C55.9513 11.4029 55.9006 11.1336 55.9006 10.8402C55.9006 10.5469 55.9513 10.2802 56.0526 10.0402C56.1593 9.79489 56.3033 9.58422 56.4846 9.40822C56.666 9.23222 56.882 9.09622 57.1326 9.00022C57.3833 8.89889 57.6526 8.84822 57.9406 8.84822C58.2286 8.84822 58.498 8.89889 58.7486 9.00022C58.9993 9.09622 59.2153 9.23222 59.3966 9.40822C59.5833 9.58422 59.7273 9.79489 59.8286 10.0402C59.9353 10.2802 59.9886 10.5469 59.9886 10.8402ZM59.2046 10.8402C59.2046 10.6589 59.1753 10.4856 59.1166 10.3202C59.0633 10.1549 58.9833 10.0109 58.8766 9.88822C58.77 9.76022 58.6366 9.65889 58.4766 9.58422C58.322 9.50955 58.1433 9.47222 57.9406 9.47222C57.738 9.47222 57.5566 9.50955 57.3966 9.58422C57.242 9.65889 57.1113 9.76022 57.0046 9.88822C56.898 10.0109 56.8153 10.1549 56.7566 10.3202C56.7033 10.4856 56.6766 10.6589 56.6766 10.8402C56.6766 11.0216 56.7033 11.1949 56.7566 11.3602C56.8153 11.5256 56.898 11.6722 57.0046 11.8002C57.1113 11.9282 57.242 12.0296 57.3966 12.1042C57.5566 12.1789 57.738 12.2162 57.9406 12.2162C58.1433 12.2162 58.322 12.1789 58.4766 12.1042C58.6366 12.0296 58.77 11.9282 58.8766 11.8002C58.9833 11.6722 59.0633 11.5256 59.1166 11.3602C59.1753 11.1949 59.2046 11.0216 59.2046 10.8402Z" fill="white"/>
<path d="M61.7114 8.95222C61.7221 9.04822 61.7301 9.15755 61.7354 9.28022C61.7408 9.39755 61.7434 9.49622 61.7434 9.57622H61.7674C61.8154 9.47489 61.8794 9.38155 61.9594 9.29622C62.0448 9.20555 62.1408 9.12822 62.2474 9.06422C62.3541 8.99489 62.4714 8.94155 62.5994 8.90422C62.7274 8.86689 62.8608 8.84822 62.9994 8.84822C63.2448 8.84822 63.4554 8.89089 63.6314 8.97622C63.8074 9.05622 63.9541 9.16555 64.0714 9.30422C64.1888 9.44289 64.2741 9.60555 64.3274 9.79222C64.3861 9.97889 64.4154 10.1789 64.4154 10.3922V12.7442H63.6634V10.6402C63.6634 10.4856 63.6501 10.3389 63.6234 10.2002C63.6021 10.0616 63.5594 9.93889 63.4954 9.83222C63.4314 9.72555 63.3434 9.64022 63.2314 9.57622C63.1194 9.51222 62.9754 9.48022 62.7994 9.48022C62.5008 9.48022 62.2554 9.59489 62.0634 9.82422C61.8768 10.0482 61.7834 10.3496 61.7834 10.7282V12.7442H61.0314V9.76822C61.0314 9.66689 61.0288 9.53622 61.0234 9.37622C61.0181 9.21622 61.0101 9.07488 60.9994 8.95222H61.7114Z" fill="white"/>
<path d="M15.4061 7.02639C16.0058 6.37436 16.8538 5.95297 17.7378 5.88133C17.9534 5.87151 18.17 5.87315 18.3856 5.88198C19.262 5.95003 20.1018 6.36684 20.6999 7.00905C21.3065 7.64833 21.6611 8.51727 21.6784 9.39799C21.6827 9.81578 21.6791 10.2336 21.6801 10.6514C21.931 10.6514 22.1816 10.6514 22.4322 10.6514C22.4303 10.2126 22.4365 9.7739 22.429 9.33551C22.4034 8.61215 22.145 7.90581 21.719 7.32313C22.4509 7.86197 22.9635 8.68642 23.1232 9.58121C23.1919 9.93356 23.1834 10.2941 23.1824 10.6514C24.6412 10.6517 26.1 10.6514 27.5592 10.6514C27.5602 14.7893 27.5605 18.9269 27.5595 23.0649C27.5589 23.3165 27.5847 23.5775 27.4954 23.819C27.3253 24.3352 26.8214 24.7354 26.2725 24.7442C20.798 24.7426 15.3236 24.7435 9.84956 24.7435C9.17495 24.7344 8.57493 24.1291 8.5625 23.4562C8.56315 19.188 8.56217 14.9195 8.56283 10.6514C10.5229 10.6514 12.4826 10.6514 14.4423 10.6514C14.4432 10.2342 14.44 9.81709 14.4439 9.40028C14.4599 8.52676 14.809 7.66436 15.4061 7.02639ZM17.5974 6.65277C16.948 6.75681 16.3395 7.09477 15.9063 7.58977C15.4561 8.09883 15.1974 8.77246 15.1931 9.45198C15.1915 9.85177 15.1928 10.2516 15.1924 10.6514C15.4431 10.6514 15.694 10.6514 15.9446 10.6514C15.9452 10.4377 15.941 10.2241 15.9518 10.0104C15.9773 9.57892 16.0817 9.1523 16.2577 8.75741C16.5943 7.94834 17.3779 7.37384 18.2246 7.19619C18.7919 7.07809 19.4014 7.13043 19.9281 7.37809C19.7528 7.36795 19.5777 7.34963 19.402 7.36272C18.7186 7.39871 18.0522 7.69086 17.5631 8.17048C17.0409 8.67431 16.7239 9.3836 16.6974 10.1089C16.6922 10.2895 16.6958 10.4704 16.6948 10.6514C18.1065 10.6514 19.5182 10.6514 20.9302 10.6514C20.9302 10.284 20.9302 9.91655 20.9302 9.54947C20.9309 9.09471 20.8245 8.63996 20.6201 8.23395C20.322 7.63622 19.813 7.14712 19.2038 6.87361C18.7045 6.64918 18.1392 6.55986 17.5974 6.65277ZM14.0739 13.7136C14.0742 14.9408 14.0732 16.1676 14.0745 17.3948C15.3011 17.3938 16.5279 17.3945 17.7548 17.3942C17.7548 16.1676 17.7541 14.9408 17.7551 13.7139C16.5279 13.7129 15.3011 13.7139 14.0739 13.7136ZM18.3672 13.7142C18.3692 14.9408 18.3679 16.1676 18.3679 17.3942C19.5944 17.3948 20.8213 17.3935 22.0478 17.3952C22.0498 16.1676 22.0485 14.9405 22.0485 13.7133C20.8213 13.7142 19.5944 13.7123 18.3672 13.7142ZM14.0745 18.0073C14.0736 19.2341 14.0745 20.4613 14.0739 21.6882C15.3011 21.6879 16.5283 21.6895 17.7551 21.6875C17.7541 20.461 17.7551 19.2341 17.7548 18.0076C16.5279 18.0073 15.3011 18.0079 14.0745 18.0073ZM18.3679 18.0076C18.3679 19.2345 18.3685 20.461 18.3676 21.6879C19.5947 21.6892 20.8216 21.6882 22.0488 21.6882C22.0485 20.4613 22.0498 19.2341 22.0481 18.0073C20.8216 18.0083 19.5947 18.0073 18.3679 18.0076Z" fill="white"/>
</svg>
